<?xml version="1.0" encoding="utf-8"?>
<svg width="140px" height="140px" viewBox="0 0 140 140" version="1.1" xmlns="http://www.w3.org/2000/svg">
  <title>contact support and ask button</title>
  <desc>Created with Sketch.</desc>
  <path d="M 0 0 L 140 0 L 140 140 L 0 140 Z M 87.223 39.326 C 84.761 37.934 82.138 36.848 79.413 36.091 L 75.741 23.5 L 64.455 23.5 L 60.782 36.091 C 58.057 36.848 55.434 37.934 52.972 39.326 L 41.472 33.02 L 33.492 41 L 39.797 52.5 C 38.406 54.962 37.32 57.585 36.563 60.31 L 23.972 63.983 L 23.972 75.269 L 36.563 78.941 C 37.32 81.667 38.406 84.289 39.797 86.751 L 33.492 98.251 L 41.472 106.232 L 52.972 99.926 C 55.434 101.317 58.057 102.404 60.782 103.161 L 64.455 115.751 L 75.741 115.751 L 79.413 103.161 C 82.138 102.404 84.761 101.317 87.223 99.926 L 98.723 106.232 L 106.703 98.251 L 100.398 86.751 C 101.789 84.289 102.876 81.667 103.633 78.941 L 116.223 75.269 L 116.223 63.983 L 103.633 60.31 C 102.876 57.585 101.789 54.962 100.398 52.5 L 106.703 41 L 98.723 33.02 Z M 83.464 73.207 C 80.707 83.496 67.845 86.943 60.313 79.41 C 56.817 75.915 55.452 70.82 56.732 66.044 C 59.489 55.755 72.35 52.309 79.882 59.841 C 83.378 63.337 84.743 68.432 83.464 73.207 Z" id="Shape" fill="#62B7ED" stroke="none" stroke-width="1" fill-rule="evenodd"/>
</svg>